HIERARCHY
ROOT Hips
{
 OFFSET 0.000000 0.000000 0.000000
 CHANNELS 6 Xposition Yposition Zposition Yrotation Xrotation Zrotation
 JOINT Chest
 {
  OFFSET 0.000000 9.585900 0.002600
  CHANNELS 3 Yrotation Xrotation Zrotation
  JOINT Chest2
  {
   OFFSET 0.000000 9.601200 -0.005300
   CHANNELS 3 Yrotation Xrotation Zrotation
   JOINT Chest3
   {
    OFFSET 0.000000 9.561800 0.000000
    CHANNELS 3 Yrotation Xrotation Zrotation
    JOINT Chest4
    {
     OFFSET 0.000000 9.552100 0.000000
     CHANNELS 3 Yrotation Xrotation Zrotation
     JOINT Neck
     {
      OFFSET 0.000000 14.453000 0.000000
      CHANNELS 3 Yrotation Xrotation Zrotation
      JOINT Head
      {
       OFFSET 0.000000 8.936500 -0.011300
       CHANNELS 3 Yrotation Xrotation Zrotation
       End Site
       {
        OFFSET 0.000000 17.073600 -0.006000
       }
      }
     }
     JOINT RightCollar
     {
      OFFSET -2.921100 9.558500 0.000000
      CHANNELS 3 Yrotation Xrotation Zrotation
      JOINT RightShoulder
      {
       OFFSET -13.519700 0.000000 0.000000
       CHANNELS 3 Yrotation Xrotation Zrotation
       JOINT RightElbow
       {
        OFFSET 0.000000 -29.696600 0.000000
        CHANNELS 3 Yrotation Xrotation Zrotation
        JOINT RightWrist
        {
         OFFSET 0.000000 -24.004700 0.000000
         CHANNELS 3 Yrotation Xrotation Zrotation
         End Site
         {
          OFFSET 0.000000 -17.728500 0.000000
         }
        }
       }
      }
     }
     JOINT LeftCollar
     {
      OFFSET 2.921100 9.558500 0.000000
      CHANNELS 3 Yrotation Xrotation Zrotation
      JOINT LeftShoulder
      {
       OFFSET 13.519700 0.000000 0.000000
       CHANNELS 3 Yrotation Xrotation Zrotation
       JOINT LeftElbow
       {
        OFFSET 0.000000 -29.696600 0.000000
        CHANNELS 3 Yrotation Xrotation Zrotation
        JOINT LeftWrist
        {
         OFFSET 0.000000 -24.004700 0.000000
         CHANNELS 3 Yrotation Xrotation Zrotation
         End Site
         {
          OFFSET 0.000000 -17.728500 0.000000
         }
        }
       }
      }
     }
    }
   }
  }
 }
 JOINT RightHip
 {
  OFFSET -7.771700 -0.012900 -0.001300
  CHANNELS 3 Yrotation Xrotation Zrotation
  JOINT RightKnee
  {
   OFFSET 0.000000 -40.869800 0.001200
   CHANNELS 3 Yrotation Xrotation Zrotation
   JOINT RightAnkle
   {
    OFFSET 0.000000 -39.717900 0.002100
    CHANNELS 3 Yrotation Xrotation Zrotation
    JOINT RightToe
    {
     OFFSET 0.000000 -4.965400 11.033500
     CHANNELS 3 Yrotation Xrotation Zrotation
     End Site
     {
      OFFSET 0.000000 -1.423100 5.872300
     }
    }
   }
  }
 }
 JOINT LeftHip
 {
  OFFSET 7.771700 -0.012900 -0.001300
  CHANNELS 3 Yrotation Xrotation Zrotation
  JOINT LeftKnee
  {
   OFFSET 0.000000 -40.869800 0.001200
   CHANNELS 3 Yrotation Xrotation Zrotation
   JOINT LeftAnkle
   {
    OFFSET 0.000000 -39.717900 0.002100
    CHANNELS 3 Yrotation Xrotation Zrotation
    JOINT LeftToe
    {
     OFFSET 0.000000 -4.965400 11.033500
     CHANNELS 3 Yrotation Xrotation Zrotation
     End Site
     {
      OFFSET 0.000000 -1.423100 5.872300
     }
    }
   }
  }
 }
}
MOTION
Frames: 13
Frame Time: 0.008333
-16.088927 58.068936 64.812239 174.795421 -30.548092 -2.742122 4.470348 19.653081 5.060231 0.444925 2.508715 0.376670 0.721713 4.112501 0.617286 3.415327 16.989801 2.993094 -0.716871 14.218403 -2.398669 -0.366151 -9.440843 -4.126064 1.408894 -4.182486 -1.247756 13.419600 -14.496478 -22.239093 -63.836509 -81.354592 109.325680 15.922786 -19.707088 -51.310313 -8.143622 -4.791219 -1.860877 -2.166861 -10.642432 6.096762 -114.214293 -83.876687 74.620225 -6.739753 -10.148515 30.285235 9.089549 -40.462249 -3.596924 -0.940248 67.506990 -1.154028 5.292928 6.527157 8.374794 -0.045126 0.114431 -0.024808 -7.646736 -46.960021 7.653232 25.208580 62.372116 20.858424 -11.780069 35.623810 5.038548 -0.104460 -16.380220 -6.214802
-16.096322 58.068822 64.812382 174.790241 -30.549486 -2.798010 4.471309 19.653539 5.095033 0.462385 2.507289 0.391721 0.701320 4.117796 0.608258 3.425968 16.987298 3.004820 -0.662494 14.178747 -2.310592 -0.294086 -9.467889 -4.123975 1.395348 -4.175030 -1.250435 13.358983 -14.472351 -22.171408 -63.978555 -81.366225 109.426627 15.938180 -19.699161 -51.292799 -8.189413 -4.784586 -1.842106 -2.178321 -10.649707 6.090712 -114.267442 -83.854808 74.705935 -6.735303 -10.145849 30.283371 9.069623 -40.462595 -3.546833 -0.935481 67.490174 -1.125616 5.290289 6.547605 8.374303 -0.044797 0.110722 -0.024584 -7.653161 -46.965316 7.704758 25.203525 62.386008 20.873924 -11.776126 35.620074 5.063770 -0.107336 -16.392451 -6.219896
-16.105624 58.067977 64.813318 174.788505 -30.548846 -2.855726 4.470732 19.652943 5.128724 0.460503 2.508166 0.395983 0.701859 4.121356 0.610090 3.420263 16.989895 3.018051 -0.613264 14.154487 -2.275861 -0.219610 -9.514854 -4.077893 1.351167 -4.153166 -1.245576 13.364143 -14.468493 -22.129969 -64.095866 -81.373360 109.511337 15.951332 -19.686268 -51.293453 -8.192421 -4.790281 -1.837588 -2.149669 -10.655733 6.081837 -114.384152 -83.834307 74.796922 -6.767466 -10.151191 30.220512 9.076083 -40.462611 -3.523916 -0.945290 67.472088 -1.083148 5.295981 6.564571 8.369871 -0.046169 0.110335 -0.024064 -7.660862 -46.975699 7.755078 25.182753 62.402714 20.882511 -11.796858 35.622633 5.055115 -0.090232 -16.400638 -6.213302
-16.118332 58.066734 64.814344 174.785950 -30.549531 -2.902041 4.470364 19.656224 5.152737 0.456569 2.507337 0.396155 0.705026 4.126610 0.617171 3.412374 16.991571 3.028174 -0.565127 14.130575 -2.238439 -0.154442 -9.562766 -4.035079 1.309889 -4.129469 -1.235096 13.358986 -14.465965 -22.090946 -64.247422 -81.409243 109.682574 15.953120 -19.667724 -51.334354 -8.224873 -4.793539 -1.811851 -2.125154 -10.668141 6.070439 -114.364947 -83.838117 74.809374 -6.813883 -10.154984 30.167721 9.152144 -40.458165 -3.566080 -0.979713 67.456734 -1.008463 5.299814 6.579586 8.358189 -0.050585 0.111768 -0.025299 -7.656963 -46.984813 7.781477 25.172059 62.413568 20.904002 -11.812046 35.625576 5.050596 -0.078738 -16.416951 -6.209357
-16.134018 58.065590 64.814816 174.778558 -30.555762 -2.935044 4.474177 19.666988 5.168307 0.452302 2.507473 0.397115 0.712941 4.128192 0.626736 3.382087 17.011792 3.055930 -0.509915 14.091325 -2.228463 -0.129310 -9.580946 -4.035443 1.330017 -4.140816 -1.262678 13.300369 -14.447751 -22.035331 -64.367166 -81.404001 109.758570 15.978357 -19.657580 -51.301905 -8.239461 -4.816555 -1.805180 -2.159741 -10.675607 6.090380 -114.495553 -83.835027 74.995131 -6.830460 -10.146714 30.160332 9.182528 -40.450162 -3.574532 -0.990313 67.443377 -0.970984 5.308783 6.588549 8.361280 -0.051544 0.114899 -0.026401 -7.640114 -46.987406 7.796263 25.157008 62.422904 20.916914 -11.858928 35.631607 5.033922 -0.048585 -16.434039 -6.208502
-16.148609 58.063958 64.816622 174.780698 -30.556276 -2.985074 4.482290 19.667713 5.208488 0.444840 2.513399 0.392653 0.724881 4.121785 0.637580 3.369319 17.024688 3.069286 -0.479007 14.065646 -2.203100 -0.063145 -9.644099 -3.980033 1.277807 -4.120036 -1.255439 13.286910 -14.449256 -21.996336 -64.508145 -81.405557 109.857027 16.005630 -19.647401 -51.274787 -8.266710 -4.828781 -1.787590 -2.164071 -10.681949 6.091102 -114.843975 -83.777158 75.307898 -6.809061 -10.118649 30.189566 9.190750 -40.448051 -3.565894 -0.994923 67.425912 -0.928556 5.316270 6.602976 8.363118 -0.052452 0.115198 -0.027807 -7.652130 -46.993732 7.830116 25.150125 62.430520 20.937963 -11.884002 35.629429 5.017755 -0.037610 -16.443141 -6.199246
-16.162976 58.062634 64.818318 174.779121 -30.559973 -3.037094 4.494707 19.670674 5.251952 0.436944 2.518676 0.386013 0.725372 4.125372 0.642999 3.373650 17.028765 3.088998 -0.451745 14.042090 -2.180705 -0.005135 -9.702351 -3.930403 1.223568 -4.100394 -1.243744 13.273542 -14.449782 -21.960046 -64.686571 -81.429493 110.012110 16.024189 -19.636990 -51.268373 -8.295572 -4.843479 -1.767174 -2.172201 -10.684262 6.094648 -115.012186 -83.749691 75.478948 -6.809245 -10.102529 30.185418 9.193934 -40.442293 -3.547863 -0.986865 67.405801 -0.879071 5.323248 6.616549 8.364724 -0.052209 0.116549 -0.027613 -7.674973 -46.995942 7.876624 25.149648 62.439854 20.958565 -11.905867 35.628730 5.002658 -0.031475 -16.467477 -6.188155
-16.178660 58.061624 64.819553 174.776587 -30.566981 -3.080872 4.502591 19.680294 5.277966 0.436913 2.520753 0.388896 0.725526 4.128693 0.647751 3.381552 17.025522 3.103388 -0.434085 14.028530 -2.154684 0.033633 -9.743742 -3.907661 1.178402 -4.079002 -1.228033 13.242885 -14.447369 -21.919540 -64.872789 -81.459560 110.169728 16.042848 -19.627270 -51.252523 -8.335205 -4.852669 -1.739230 -2.178916 -10.682889 6.102396 -115.100343 -83.728342 75.576923 -6.809163 -10.090919 30.179907 9.197487 -40.433175 -3.528121 -0.995509 67.388261 -0.859066 5.325422 6.627621 8.371388 -0.052121 0.118544 -0.026805 -7.699581 -46.992621 7.917191 25.152840 62.447970 20.973771 -11.914690 35.625217 4.998420 -0.026575 -16.479285 -6.182609
-16.195864 58.061090 64.819936 174.766890 -30.579300 -3.109741 4.508834 19.694847 5.291975 0.437195 2.523540 0.391842 0.725973 4.132736 0.652524 3.391710 17.022629 3.116539 -0.420804 14.015785 -2.132550 0.051830 -9.762168 -3.912777 1.161092 -4.071756 -1.224577 13.180331 -14.435757 -21.862926 -65.073621 -81.499089 110.339428 16.066165 -19.614368 -51.232020 -8.374096 -4.864309 -1.711151 -2.186076 -10.679124 6.111424 -115.160258 -83.697503 75.640963 -6.800450 -10.078685 30.187236 9.208407 -40.418620 -3.515676 -0.993200 67.373047 -0.839343 5.327826 6.634671 8.382745 -0.055111 0.123161 -0.026095 -7.703106 -46.986765 7.926027 25.175466 62.454601 21.011950 -11.883363 35.622439 5.040606 -0.041110 -16.498020 -6.202096
-16.207689 58.060510 64.821628 174.754857 -30.586849 -3.166572 4.526375 19.704172 5.338161 0.437434 2.526453 0.394874 0.726229 4.137262 0.657578 3.393280 17.029038 3.135651 -0.406013 13.991972 -2.124200 0.081668 -9.818224 -3.893858 1.154578 -4.074140 -1.232593 13.114846 -14.426156 -21.801655 -65.316273 -81.553759 110.547406 16.091467 -19.598007 -51.208547 -8.399425 -4.888415 -1.692802 -2.196126 -10.672465 6.120418 -115.193741 -83.676855 75.696090 -6.801862 -10.066156 30.184904 9.178816 -40.411123 -3.448406 -1.001129 67.347953 -0.841091 5.329676 6.652106 8.390485 -0.051755 0.121946 -0.025425 -7.754631 -46.981357 8.002685 25.188870 62.469915 21.028186 -11.859481 35.610298 5.065525 -0.047098 -16.509138 -6.212181
-16.220573 58.060547 64.822053 174.739648 -30.601642 -3.209446 4.541176 19.723172 5.368811 0.420463 2.536492 0.385845 0.746264 4.134384 0.674726 3.399141 17.034351 3.157507 -0.400627 13.967582 -2.116846 0.100436 -9.871695 -3.881344 1.094918 -4.030359 -1.212960 13.108473 -14.457716 -21.769417 -65.600756 -81.623665 110.789058 16.116285 -19.580570 -51.178191 -8.424802 -4.910749 -1.676619 -2.206030 -10.663723 6.130454 -115.273924 -83.677578 75.814605 -6.812039 -10.052990 30.175155 9.160224 -40.395529 -3.393857 -1.038013 67.326714 -0.874582 5.346896 6.663605 8.402346 -0.051940 0.123501 -0.024957 -7.791518 -46.969053 8.064988 25.211305 62.487828 21.044700 -11.835908 35.588961 5.090846 -0.053588 -16.514328 -6.216351
-16.234771 58.059571 64.823848 174.731179 -30.604393 -3.241877 4.546398 19.728286 5.386748 0.426129 2.535514 0.395602 0.716468 4.153410 0.670182 3.426271 17.031074 3.181408 -0.394199 13.946791 -2.125935 0.104629 -9.900556 -3.874693 1.094257 -4.031265 -1.225312 13.040941 -14.448300 -21.692957 -65.912487 -81.708912 111.048702 16.140861 -19.562662 -51.138543 -8.443906 -4.928746 -1.665499 -2.213199 -10.654872 6.139165 -115.363719 -83.640205 75.914024 -6.804640 -10.034954 30.182050 9.154899 -40.390842 -3.358734 -1.068232 67.308355 -0.907620 5.358218 6.670017 8.424602 -0.055086 0.127540 -0.025790 -7.822578 -46.964503 8.114169 25.216760 62.499018 21.042128 -11.831287 35.557258 5.090146 -0.047817 -16.502592 -6.207117
-16.235276 58.062014 64.822447 174.702038 -30.640361 -3.335670 4.588127 19.759778 5.480197 0.438663 2.535011 0.405423 0.717520 4.155284 0.674239 3.414369 17.040930 3.201983 -0.383315 13.930712 -2.140360 0.111432 -9.907963 -3.883318 1.103098 -4.026410 -1.244068 12.977064 -14.437428 -21.609098 -66.272918 -81.809271 111.343996 16.162212 -19.541506 -51.084288 -8.442034 -4.941437 -1.667432 -2.223079 -10.644302 6.149564 -115.481651 -83.601606 76.042318 -6.806205 -10.007360 30.173017 9.104052 -40.351837 -3.218449 -1.090268 67.266485 -0.918606 5.358436 6.685725 8.431699 -0.057567 0.132110 -0.027655 -7.896397 -46.929186 8.252074 25.248669 62.523121 21.068675 -11.720317 35.558135 5.199269 -0.114858 -16.536821 -6.238860
